<svg width="640" height="640" viewBox="0 0 640 640" fill="none" xmlns="http://www.w3.org/2000/svg">
            <!-- stroke: #D0CCC9; -->
<defs>
    <style>
        .line {
            stroke: hsl(0,0%,90%);
            stroke-width: 3;
            stroke-linecap: round;
            stroke-dasharray: 0 8;
        }
        .punn {
            stroke: hsl(0,0%,90%);
            fill:white;
        }
</style>
</defs>


<path d="M448 -34C448 -26.8333 448 43 448 58.5001C448 300.5 285 360.5 285 360.5C285 360.5 66 457.5 66 576.5L66 652.5" class="line"  />
<path d="M448 652V578C432.5 491.833 436.1 319.5 574.5 319.5C712.9 319.5 687.5 319.5 657.5 319.5" stroke="black" class="line" stroke-dasharray="8 16"/>
<path d="M-15.5 322.5H64.5C134.833 327.167 323.5 356 295 225.5C270.954 115.395 64.5 245 64.5 74C64.5 24.4 64.5 5.83333 64.5 -11" class="line" stroke-dasharray="8 16"/>
<path d="M9 511.5H63.5C119.205 511.5 319.5 478 253 646" class="line" stroke-dasharray="8 16"/>
<path d="M256.5 -19C256.5 -10.1667 247.5 40.7 247.5 59.5C247.5 83 276.5 218.5 437.5 217.5C598.5 216.5 509.5 41 509.5 -19" class="line" stroke-dasharray="8 16"/>
<path d="M518 662.5C478 585.5 503.5 499 664.5 513" class="line" stroke-dasharray="8 16"/>
<circle cx="130" cy="328" r="7" class="punn"/>
<circle cx="448" cy="65" r="7" class="punn"/>


</svg>
